HIERARCHY
ROOT hip
{
  OFFSET 0 0 0
  CHANNELS 6 Xposition Yposition Zposition Zrotation Yrotation Xrotation
  JOINT abdomen
  {
    OFFSET 0 20.6881 -0.73152
    CHANNELS 3 Zrotation Xrotation Yrotation
    JOINT chest
    {
      OFFSET 0 11.7043 -0.48768
      CHANNELS 3 Zrotation Xrotation Yrotation
      JOINT neck
      {
        OFFSET 0 22.1894 -2.19456
        CHANNELS 3 Zrotation Xrotation Yrotation
        JOINT head
        {
          OFFSET -0.24384 7.07133 1.2192
          CHANNELS 3 Zrotation Xrotation Yrotation
          JOINT leftEye
          {
            OFFSET 4.14528 8.04674 8.04672
            CHANNELS 3 Zrotation Xrotation Yrotation
            End Site
            {
              OFFSET 1 0 0
            }
          }
          JOINT rightEye
          {
            OFFSET -3.6576 8.04674 8.04672
            CHANNELS 3 Zrotation Xrotation Yrotation
            End Site
            {
              OFFSET 1 0 0
            }
          }
        }
      }
      JOINT rCollar
      {
        OFFSET -2.68224 19.2634 -4.8768
        CHANNELS 3 Zrotation Xrotation Yrotation
        JOINT rShldr
        {
          OFFSET -8.77824 -1.95073 1.46304
          CHANNELS 3 Zrotation Xrotation Yrotation
          JOINT rForeArm
          {
            OFFSET -28.1742 -1.7115 0.48768
            CHANNELS 3 Zrotation Xrotation Yrotation
            JOINT rHand
            {
              OFFSET -22.5879 0.773209 7.07136
              CHANNELS 3 Zrotation Xrotation Yrotation
              JOINT rThumb1
              {
                OFFSET -1.2192 -0.487915 3.41376
                CHANNELS 3 Zrotation Xrotation Yrotation
                JOINT rThumb2
                {
                  OFFSET -3.37035 -0.52449 3.41376
                  CHANNELS 3 Zrotation Xrotation Yrotation
                  End Site
                  {
                    OFFSET -1.78271 -1.18214 1.43049
                  }
                }
              }
              JOINT rIndex1
              {
                OFFSET -7.75947 0.938293 5.60832
                CHANNELS 3 Zrotation Xrotation Yrotation
                JOINT rIndex2
                {
                  OFFSET -2.54057 -0.884171 1.56538
                  CHANNELS 3 Zrotation Xrotation Yrotation
                  End Site
                  {
                    OFFSET -1.62519 -0.234802 1.16502
                  }
                }
              }
              JOINT rMid1
              {
                OFFSET -8.24714 1.18213 3.41376
                CHANNELS 3 Zrotation Xrotation Yrotation
                JOINT rMid2
                {
                  OFFSET -3.10165 -0.590103 1.0647
                  CHANNELS 3 Zrotation Xrotation Yrotation
                  End Site
                  {
                    OFFSET -2.48547 -0.328903 0.83742
                  }
                }
              }
              JOINT rRing1
              {
                OFFSET -8.82822 0.546677 1.51678
                CHANNELS 3 Zrotation Xrotation Yrotation
                JOINT rRing2
                {
                  OFFSET -2.60934 -0.819778 -0.0198488
                  CHANNELS 3 Zrotation Xrotation Yrotation
                  End Site
                  {
                    OFFSET -2.33842 -0.294052 0.168128
                  }
                }
              }
              JOINT rPinky1
              {
                OFFSET -8.27202 -0.0477905 -0.4584
                CHANNELS 3 Zrotation Xrotation Yrotation
                JOINT rPinky2
                {
                  OFFSET -1.82734 -0.647385 -0.700984
                  CHANNELS 3 Zrotation Xrotation Yrotation
                  End Site
                  {
                    OFFSET -1.69225 -0.51767 -0.607171
                  }
                }
              }
            }
          }
        }
      }
      JOINT lCollar
      {
        OFFSET 2.68224 19.2634 -4.8768
        CHANNELS 3 Zrotation Xrotation Yrotation
        JOINT lShldr
        {
          OFFSET 8.77824 -1.95073 1.46304
          CHANNELS 3 Zrotation Xrotation Yrotation
          JOINT lForeArm
          {
            OFFSET 28.1742 -1.7115 0.48768
            CHANNELS 3 Zrotation Xrotation Yrotation
            JOINT lHand
            {
              OFFSET 22.5879 0.773209 7.07136
              CHANNELS 3 Zrotation Xrotation Yrotation
              JOINT lThumb1
              {
                OFFSET 1.2192 -0.487915 3.41376
                CHANNELS 3 Zrotation Xrotation Yrotation
                JOINT lThumb2
                {
                  OFFSET 3.37035 -0.52449 3.41376
                  CHANNELS 3 Zrotation Xrotation Yrotation
                  End Site
                  {
                    OFFSET 1.78271 -1.18214 1.43049
                  }
                }
              }
              JOINT lIndex1
              {
                OFFSET 7.75947 0.938293 5.60832
                CHANNELS 3 Zrotation Xrotation Yrotation
                JOINT lIndex2
                {
                  OFFSET 2.54057 -0.884171 1.56538
                  CHANNELS 3 Zrotation Xrotation Yrotation
                  End Site
                  {
                    OFFSET 1.62519 -0.234802 1.16502
                  }
                }
              }
              JOINT lMid1
              {
                OFFSET 8.24714 1.18213 3.41376
                CHANNELS 3 Zrotation Xrotation Yrotation
                JOINT lMid2
                {
                  OFFSET 3.10165 -0.590103 1.0647
                  CHANNELS 3 Zrotation Xrotation Yrotation
                  End Site
                  {
                    OFFSET 2.48547 -0.328903 0.83742
                  }
                }
              }
              JOINT lRing1
              {
                OFFSET 8.82822 0.546677 1.51678
                CHANNELS 3 Zrotation Xrotation Yrotation
                JOINT lRing2
                {
                  OFFSET 2.60934 -0.819778 -0.0198488
                  CHANNELS 3 Zrotation Xrotation Yrotation
                  End Site
                  {
                    OFFSET 2.33842 -0.294052 0.168128
                  }
                }
              }
              JOINT lPinky1
              {
                OFFSET 8.27202 -0.0477905 -0.4584
                CHANNELS 3 Zrotation Xrotation Yrotation
                JOINT lPinky2
                {
                  OFFSET 1.82734 -0.647385 -0.700984
                  CHANNELS 3 Zrotation Xrotation Yrotation
                  End Site
                  {
                    OFFSET 1.69225 -0.51767 -0.607171
                  }
                }
              }
            }
          }
        }
      }
    }
  }
  JOINT rButtock
  {
    OFFSET -8.77824 4.35084 1.2192
    CHANNELS 3 Zrotation Xrotation Yrotation
    JOINT rThigh
    {
      OFFSET 0 -1.70687 -2.19456
      CHANNELS 3 Zrotation Xrotation Yrotation
      JOINT rShin
      {
        OFFSET 0 -36.8199 0.73152
        CHANNELS 3 Zrotation Xrotation Yrotation
        JOINT rFoot
        {
          OFFSET 0.73152 -45.1104 -5.12064
          CHANNELS 3 Zrotation Xrotation Yrotation
          End Site
          {
            OFFSET -1.1221 -3.69964 12.103
          }
        }
      }
    }
  }
  JOINT lButtock
  {
    OFFSET 8.77824 4.35084 1.2192
    CHANNELS 3 Zrotation Xrotation Yrotation
    JOINT lThigh
    {
      OFFSET 0 -1.70687 -2.19456
      CHANNELS 3 Zrotation Xrotation Yrotation
      JOINT lShin
      {
        OFFSET 0 -36.8199 0.73152
        CHANNELS 3 Zrotation Xrotation Yrotation
        JOINT lFoot
        {
          OFFSET -0.73152 -45.1104 -5.12064
          CHANNELS 3 Zrotation Xrotation Yrotation
          End Site
          {
            OFFSET 1.1221 -3.69964 12.103
          }
        }
      }
    }
  }
}
MOTION
Frames:	4
Frame Time:	0.00833333
-135.608 85.2982 33.1454 0.0 0.0 0.0 0.984355 -0.00436093 0.0272514 0.271545 -0.00455347 0.0470445 1.95563e-14 -1.59028e-15 -6.21202e-17 5.88092e-14 3.18055e-15 -1.52195e-16 -0.0 0.0 0.0 -0.0 0.0 0.0 9.7394e-15 -7.37677e-18 9.93923e-17 2.06769e-13 2.48481e-17 3.97569e-16 3.53285e-12 -1.05912e-12 -2.8625e-14 4.04045e-11 1.03296e-12 -7.31528e-14 9.53118e-11 -5.85821e-14 -2.16278e-13 1.64591e-10 -1.01778e-13 -3.80871e-13 9.53145e-11 -5.725e-14 -2.25819e-13 7.73091 5.47488 0.417314 9.53114e-11 -5.84427e-14 -2.19458e-13 2.90554 0.965183 0.102902 9.53228e-11 -5.83433e-14 -2.17868e-13 10.2786 0.731801 0.0259123 9.53045e-11 -5.84427e-14 -2.09917e-13 2.22167 -0.733487 -0.20892 9.74214e-15 -6.98852e-18 -1.98785e-16 2.0285e-13 1.86361e-17 -7.95139e-16 3.53211e-12 1.05197e-12 -7.63333e-14 4.03994e-11 -1.08303e-12 -1.27222e-14 9.53048e-11 -7.02147e-14 -2.22639e-13 1.64598e-10 -1.20861e-13 -3.83257e-13 9.53006e-11 -6.79844e-14 -2.03556e-13 -7.73091 5.47488 -0.417314 9.53048e-11 -6.99722e-14 -2.22639e-13 -2.90554 0.965183 -0.102902 9.52992e-11 -7.0171e-14 -2.21049e-13 -10.2786 0.731801 -0.0259123 9.53053e-11 -6.91771e-14 -2.29e-13 -2.22167 -0.733487 0.20892 -2.03217e-16 0.0 -3.88251e-19 1.24883 -5.45297 -0.109164 6.91865e-05 4.32233 0.0238798 -0.510679 1.12951 0.0812353 2.03217e-16 0.0 3.88251e-19 0.249675 -1.91924 0.0129231 0.00928362 -2.07855 0.0766841 0.496249 3.99654 -0.137944
-130.789 83.6216 21.3136 177.761 54.2321 -175.528 3.57038 2.39717 2.35174 0.706046 2.59172 0.815896 2.2485 0.148358 2.83746 -5.01418 -0.673953 5.13225 -0.0 0.0 0.0 -0.0 0.0 0.0 -8.52887e-14 -1.44363e-13 1.64578e-13 19.2631 6.0643 7.86304 -7.57732 -4.54285 10.3991 0.289942 -11.9955 -1.55555 5.77292e-11 4.90383e-10 4.28781e-10 8.49065e-11 8.52593e-10 7.40315e-10 5.77325e-11 4.90389e-10 4.28765e-10 7.73091 5.47488 0.417314 5.77288e-11 4.90383e-10 4.28777e-10 2.90554 0.965183 0.102902 5.77379e-11 4.90383e-10 4.2878e-10 10.2786 0.731801 0.0259123 5.77243e-11 4.90382e-10 4.28788e-10 2.22167 -0.733487 -0.20892 -8.52776e-14 -1.44357e-13 1.64326e-13 -20.5753 10.902 1.55463 12.7342 -9.73434 -13.7627 -0.00208431 -1.01779 0.142961 4.8821e-10 4.45525e-10 -1.82457e-10 8.42655e-10 7.73733e-10 -3.13224e-10 4.88205e-10 4.4553e-10 -1.82436e-10 -7.73091 5.47488 -0.417314 4.88211e-10 4.45526e-10 -1.82456e-10 -2.90554 0.965183 -0.102902 4.88204e-10 4.45526e-10 -1.82456e-10 -10.2786 0.731801 -0.0259123 4.88211e-10 4.45527e-10 -1.82466e-10 -2.22167 -0.733487 0.20892 -2.03217e-16 0.0 -3.88251e-19 -1.26843 -7.84891 -4.26805 0.0354833 9.14684 0.175916 -0.975358 -2.76381 -6.03798 2.03217e-16 0.0 3.88251e-19 3.50324 -8.78938 -0.246403 -2.36109e-05 3.33912 -0.0341912 0.673083 1.27579 4.04063
-130.675 83.5678 21.4051 177.743 54.1112 -175.206 6.07824 4.91722 4.80017 1.08986 5.33413 1.62688 4.59847 0.299247 5.83659 -10.181 -1.35376 10.5651 -0.0 0.0 0.0 -0.0 0.0 0.0 -1.95664e-13 -3.11803e-13 3.63444e-13 37.8222 12.1043 16.4481 -13.8161 -8.84266 21.5913 -0.17574 -24.6248 -3.4413 -1.35567e-12 1.08534e-09 9.45497e-10 -3.48264e-11 1.88589e-09 1.63173e-09 -1.35186e-12 1.08535e-09 9.45473e-10 7.73091 5.47488 0.417314 -1.35613e-12 1.08534e-09 9.45492e-10 2.90554 0.965183 0.102902 -1.34952e-12 1.08534e-09 9.45497e-10 10.2786 0.731801 0.0259123 -1.35804e-12 1.08534e-09 9.45504e-10 2.22167 -0.733487 -0.20892 -1.95641e-13 -3.11791e-13 3.63245e-13 -43.0066 22.399 3.38545 21.1014 -18.1267 -29.4946 0.00126579 -2.10542 0.295886 9.29017e-10 9.90233e-10 -3.86926e-10 1.60326e-09 1.71948e-09 -6.6417e-10 9.29012e-10 9.90243e-10 -3.86902e-10 -7.73091 5.47488 -0.417314 9.29019e-10 9.90236e-10 -3.86924e-10 -2.90554 0.965183 -0.102902 9.29011e-10 9.90237e-10 -3.86925e-10 -10.2786 0.731801 -0.0259123 9.2902e-10 9.90238e-10 -3.86936e-10 -2.22167 -0.733487 0.20892 -2.03217e-16 0.0 -3.88251e-19 -4.33057 -10.2982 -8.72816 0.0443269 14.2352 0.342482 -2.36814 -6.7414 -12.5879 2.03217e-16 0.0 3.88251e-19 6.8597 -16.045 -0.495992 0.0132179 9.07416 -0.153114 1.28737 -1.55989 8.45322
-130.545 83.5574 21.5027 178.124 53.9479 -174.666 8.15556 7.15239 7.04967 1.3644 7.77845 2.37294 6.70159 0.440711 8.5126 -14.685 -1.95712 15.4049 -0.0 0.0 0.0 -0.0 0.0 0.0 -2.75345e-13 -4.33074e-13 4.93535e-13 52.7696 16.7994 24.5694 -17.9702 -11.8326 31.8516 -1.46925 -35.8673 -5.63598 -1.74359e-11 1.47127e-09 1.28678e-09 -7.44616e-11 2.55798e-09 2.22171e-09 -1.74314e-11 1.47128e-09 1.28675e-09 7.73091 5.47488 0.417314 -1.74364e-11 1.47127e-09 1.28677e-09 2.90554 0.965183 0.102902 -1.74318e-11 1.47126e-09 1.28678e-09 10.2786 0.731801 0.0259123 -1.74362e-11 1.47126e-09 1.28678e-09 2.22167 -0.733487 -0.20892 -2.75317e-13 -4.33058e-13 4.93376e-13 -63.7801 32.6004 5.43855 24.6556 -22.317 -44.8006 0.00900253 -3.0533 0.429425 1.27402e-09 1.33671e-09 -5.46927e-10 2.19877e-09 2.32144e-09 -9.38905e-10 1.27402e-09 1.33673e-09 -5.46901e-10 -7.73091 5.47488 -0.417314 1.27402e-09 1.33672e-09 -5.46924e-10 -2.90554 0.965183 -0.102902 1.27401e-09 1.33672e-09 -5.46926e-10 -10.2786 0.731801 -0.0259123 1.27402e-09 1.33672e-09 -5.46938e-10 -2.22167 -0.733487 0.20892 -2.03217e-16 0.0 -3.88251e-19 -7.35835 -12.401 -12.7694 0.0254818 18.7953 0.500082 -4.38519 -10.0576 -18.5505 2.03217e-16 0.0 3.88251e-19 9.81044 -22.5278 -0.818846 0.0455223 14.1743 -0.263695 2.20988 -4.05916 12.4258
